<svg width="115" height="106" viewBox="0 0 115 106" fill="none" xmlns="http://www.w3.org/2000/svg">
<rect width="110.7" height="101.92" fill="black" fill-opacity="0" transform="translate(2 2)"/>
<rect width="110.7" height="101.92" fill="black" fill-opacity="0" transform="translate(2 2)"/>
<rect width="110.7" height="101.92" fill="black" fill-opacity="0" transform="translate(2 2)"/>
<rect width="110.7" height="101.92" fill="black" fill-opacity="0" transform="translate(2 2)"/>
<rect width="110.7" height="101.92" fill="black" fill-opacity="0" transform="translate(2 2)"/>
<rect width="110.7" height="101.92" fill="black" fill-opacity="0" transform="translate(2 2)"/>
<path d="M52.96 103.92C81.1044 103.92 103.92 81.1044 103.92 52.96C103.92 24.8156 81.1044 2 52.96 2C24.8156 2 2 24.8156 2 52.96C2 81.1044 24.8156 103.92 52.96 103.92Z" fill="white" stroke="#333331" stroke-width="3" stroke-linecap="round" stroke-linejoin="round"/>
<path d="M107.41 47.67H89.41C88.073 38.463 83.2992 30.1038 76.0489 24.2738C68.7986 18.4438 59.6096 15.5754 50.3302 16.2457C41.0508 16.9159 32.3694 21.0751 26.0322 27.8865C19.695 34.698 16.1721 43.6564 16.1721 52.96C16.1721 62.2636 19.695 71.222 26.0322 78.0335C32.3694 84.845 41.0508 89.0041 50.3302 89.6744C59.6096 90.3446 68.7986 87.4762 76.0489 81.6462C83.2992 75.8162 88.073 67.457 89.41 58.25H107.41C108.813 58.25 110.159 57.6927 111.151 56.7006C112.143 55.7085 112.7 54.363 112.7 52.96C112.7 51.557 112.143 50.2115 111.151 49.2194C110.159 48.2273 108.813 47.67 107.41 47.67Z" fill="white" stroke="#333331" stroke-width="3" stroke-linecap="round" stroke-linejoin="round"/>
<path d="M52.96 82.16C69.0867 82.16 82.16 69.0867 82.16 52.96C82.16 36.8333 69.0867 23.76 52.96 23.76C36.8333 23.76 23.76 36.8333 23.76 52.96C23.76 69.0867 36.8333 82.16 52.96 82.16Z" fill="#6F4E37" stroke="#333331" stroke-width="3" stroke-linecap="round" stroke-linejoin="round"/>
<path d="M71.5701 32.79C66.3562 28.0033 59.4948 25.4156 52.4185 25.5671C45.3421 25.7187 38.5978 28.5977 33.5936 33.6033C28.5893 38.6088 25.712 45.3538 25.5623 52.4302C25.4126 59.5066 28.0021 66.3673 32.7901 71.58C31.1191 66.1883 30.9519 60.4426 32.3066 54.9629C33.6613 49.4831 36.4865 44.4773 40.4774 40.4853C44.4683 36.4934 49.4735 33.6669 54.9529 32.3108C60.4323 30.9546 66.178 31.1203 71.5701 32.79Z" fill="white"/>
</svg>
