<svg width="260" height="227" viewBox="0 0 260 227" fill="none" xmlns="http://www.w3.org/2000/svg">
<path d="M0 2.38e-06H207.562V116.49C207.562 119.283 206.453 121.961 204.479 123.935C202.505 125.91 199.828 127.019 197.036 127.019H10.541C9.1575 127.021 7.78714 126.75 6.50833 126.222C5.22953 125.694 4.06737 124.918 3.08834 123.941C2.10931 122.963 1.33262 121.801 0.802691 120.523C0.272764 119.245 -1.51828e-06 117.874 0 116.49V2.38e-06Z" transform="matrix(-0.931391 0.36402 0.363783 0.931484 213.793 33.1274)" fill="white" stroke="#333331" stroke-width="3" stroke-linecap="round" stroke-linejoin="round"/>
<path d="M194.719 98.1526L1.41892 22.5942L9.51689e-07 -3.57018e-07L211.067 82.4996L194.719 98.1526Z" transform="translate(215.193 10.5407) scale(-1 1)" fill="#FFC13A" stroke="#333331" stroke-width="3" stroke-linecap="round" stroke-linejoin="round"/>
<path d="M11.3129 3.16548e-06H215.319C218.318 3.16548e-06 221.193 1.1914 223.313 3.31211C225.433 5.43281 226.624 8.30911 226.624 11.3082H-4.75868e-07C-8.29082e-07 9.82256 0.292672 8.35145 0.861294 6.97896C1.42992 5.60647 2.26334 4.35952 3.31395 3.30935C4.36455 2.25918 5.61173 1.42639 6.98423 0.858552C8.35673 0.290719 9.82764 -0.00102144 11.3129 3.16548e-06Z" transform="matrix(-0.931391 0.36402 0.363783 0.931484 211.076 0)" fill="white" stroke="#333331" stroke-width="3" stroke-linecap="round" stroke-linejoin="round"/>
<path d="M0.413198 6.51231L-1.66546e-06 -5.95029e-07L189.737 74.1623L185.028 78.6702L0.413198 6.51231Z" transform="translate(207.186 21.5141) scale(-1 1)" fill="white" stroke="#333331" stroke-width="3" stroke-linecap="round" stroke-linejoin="round"/>
<path d="M0.413198 6.51231L-1.66546e-06 -5.95029e-07L189.737 74.1623L185.028 78.6702L0.413198 6.51231Z" transform="translate(207.186 21.5141) scale(-1 1)" fill="white" stroke="#333331" stroke-width="3" stroke-linecap="round" stroke-linejoin="round"/>
<path d="M53.2275 3.808e-06H2.85521e-06V25.0575H53.2275V3.808e-06Z" transform="matrix(-0.931391 0.36402 0.363783 0.931484 175.52 147.28)" fill="#FFC13A" stroke="#333331" stroke-width="3" stroke-linecap="round" stroke-linejoin="round"/>
<path d="M-1.90338e-06 3.80819e-06L16.2162 6.34072" transform="translate(181.794 163.326) scale(-1 1)" stroke="#333331" stroke-width="3" stroke-linecap="round" stroke-linejoin="round"/>
<path d="M4.75844e-06 4.76024e-06L16.2162 6.33293" transform="translate(148.434 176.367) scale(-1 1)" stroke="#333331" stroke-width="3" stroke-linecap="round" stroke-linejoin="round"/>
<path d="M10.4397 -2.856e-06H0V10.4426H10.4397V-2.856e-06Z" transform="matrix(-0.931391 0.36402 0.363783 0.931484 224.546 108.132)" fill="#FFC13A" stroke="#333331" stroke-width="3" stroke-linecap="round" stroke-linejoin="round"/>
<path d="M10.4397 -3.808e-06H0V10.4426H10.4397V-3.808e-06Z" transform="matrix(-0.931391 0.36402 0.363783 0.931484 208.023 114.596)" fill="#FFC13A" stroke="#333331" stroke-width="3" stroke-linecap="round" stroke-linejoin="round"/>
<path d="M69.8932 25.8387L3.79677 -1.42807e-06L-1.66546e-06 9.72556L66.0965 35.5642L75.8184 39.3624L79.6152 29.6368L69.8932 25.8387Z" transform="translate(195.297 121.047) scale(-1 1)" fill="#FFC13A" stroke="#333331" stroke-width="3" stroke-linecap="round" stroke-linejoin="round"/>
<path d="M10.4397 0H0V10.4426H10.4397V0Z" transform="matrix(-0.931391 0.36402 0.363783 0.931484 108.872 153.342)" fill="#FFC13A" stroke="#333331" stroke-width="3" stroke-linecap="round" stroke-linejoin="round"/>
<path d="M10.4397 -2.856e-06H0V10.4426H10.4397V-2.856e-06Z" transform="matrix(-0.931391 0.36402 0.363783 0.931484 92.3492 159.805)" fill="#FFC13A" stroke="#333331" stroke-width="3" stroke-linecap="round" stroke-linejoin="round"/>
<path d="M20.3248 6.45771L3.80456 -1.66608e-06L1.07065e-06 9.72557L16.528 16.1833L26.2499 19.9815L30.0467 10.2559L20.3248 6.45771Z" transform="translate(222.529 93.2197) scale(-1 1)" fill="#FFC13A" stroke="#333331" stroke-width="3" stroke-linecap="round" stroke-linejoin="round"/>
<path d="M10.4397 0H0V10.4426H10.4397V0Z" transform="matrix(-0.931391 0.36402 0.363783 0.931484 185.68 106.135)" fill="#FFC13A" stroke="#333331" stroke-width="3" stroke-linecap="round" stroke-linejoin="round"/>
<path d="M10.4397 0H-2.14141e-06V10.4426H10.4397V0Z" transform="matrix(-0.931391 0.36402 0.363783 0.931484 169.149 112.591)" fill="#FFC13A" stroke="#333331" stroke-width="3" stroke-linecap="round" stroke-linejoin="round"/>
<path d="M10.4397 -2.856e-06H5.71042e-06V10.4426H10.4397V-2.856e-06Z" transform="matrix(-0.931391 0.36402 0.363783 0.931484 152.626 119.051)" fill="#FFC13A" stroke="#333331" stroke-width="3" stroke-linecap="round" stroke-linejoin="round"/>
<path d="M10.4397 0H2.85521e-06V10.4426H10.4397V0Z" transform="matrix(-0.931391 0.36402 0.363783 0.931484 103.052 138.43)" fill="#FFC13A" stroke="#333331" stroke-width="3" stroke-linecap="round" stroke-linejoin="round"/>
<path d="M10.4397 0H0V10.4426H10.4397V0Z" transform="matrix(-0.931391 0.36402 0.363783 0.931484 86.521 144.893)" fill="#FFC13A" stroke="#333331" stroke-width="3" stroke-linecap="round" stroke-linejoin="round"/>
<path d="M9.62835 -9.52047e-07L5.82379 9.71777L4.75844e-06 24.6298L9.72191 28.428L15.5457 13.5238L19.3425 3.79819L9.62835 -9.52047e-07Z" transform="translate(79.6319 151.355) scale(-1 1)" fill="#FFC13A" stroke="#333331" stroke-width="3" stroke-linecap="round" stroke-linejoin="round"/>
<path d="M10.4397 0H0V10.4426H10.4397V0Z" transform="matrix(-0.931391 0.36402 0.363783 0.931484 212.906 78.3072)" fill="#FFC13A" stroke="#333331" stroke-width="3" stroke-linecap="round" stroke-linejoin="round"/>
<path d="M10.4397 -2.142e-06H0V10.4426H10.4397V-2.142e-06Z" transform="matrix(-0.931391 0.36402 0.363783 0.931484 196.375 84.7704)" fill="#FFC13A" stroke="#333331" stroke-width="3" stroke-linecap="round" stroke-linejoin="round"/>
<path d="M10.4397 2.856e-06H0V10.4426H10.4397V2.856e-06Z" transform="matrix(-0.931391 0.36402 0.363783 0.931484 179.852 91.2229)" fill="#FFC13A" stroke="#333331" stroke-width="3" stroke-linecap="round" stroke-linejoin="round"/>
<path d="M10.4397 -2.38e-06H0V10.4426H10.4397V-2.38e-06Z" transform="matrix(-0.931391 0.36402 0.363783 0.931484 163.324 97.6934)" fill="#FFC13A" stroke="#333331" stroke-width="3" stroke-linecap="round" stroke-linejoin="round"/>
<path d="M10.4397 -3.332e-06H-5.23455e-06V10.4426H10.4397V-3.332e-06Z" transform="matrix(-0.931391 0.36402 0.363783 0.931484 146.808 104.146)" fill="#FFC13A" stroke="#333331" stroke-width="3" stroke-linecap="round" stroke-linejoin="round"/>
<path d="M10.4397 -4.284e-06H4.28281e-06V10.4426H10.4397V-4.284e-06Z" transform="matrix(-0.931391 0.36402 0.363783 0.931484 130.278 110.601)" fill="#FFC13A" stroke="#333331" stroke-width="3" stroke-linecap="round" stroke-linejoin="round"/>
<path d="M26.1486 -1.90409e-06L20.3248 14.912L13.5187 12.2525L3.79677 8.4543L-5.23429e-06 18.1799L9.7219 21.9781L16.528 24.6376L26.2499 28.4358L30.0467 18.7102L35.8705 3.806L26.1486 -1.90409e-06Z" transform="translate(139.905 117.062) scale(-1 1)" fill="#FFC13A" stroke="#333331" stroke-width="3" stroke-linecap="round" stroke-linejoin="round"/>
<path d="M10.4397 5.712e-06H3.80694e-06V10.4426H10.4397V5.712e-06Z" transform="matrix(-0.931391 0.36402 0.363783 0.931484 97.2235 123.517)" fill="#FFC13A" stroke="#333331" stroke-width="3" stroke-linecap="round" stroke-linejoin="round"/>
<path d="M10.4397 4.76e-06H0V10.4426H10.4397V4.76e-06Z" transform="matrix(-0.931391 0.36402 0.363783 0.931484 80.7006 129.98)" fill="#FFC13A" stroke="#333331" stroke-width="3" stroke-linecap="round" stroke-linejoin="round"/>
<path d="M10.4397 0H3.33108e-06V10.4426H10.4397V0Z" transform="matrix(-0.931391 0.36402 0.363783 0.931484 64.1801 136.44)" fill="#FFC13A" stroke="#333331" stroke-width="3" stroke-linecap="round" stroke-linejoin="round"/>
<path d="M20.3248 6.45771L3.80456 1.66608e-06L0 9.71777L16.528 16.1833L26.2499 19.9815L30.0467 10.2559L20.3248 6.45771Z" transform="translate(210.881 63.4034) scale(-1 1)" fill="#FFC13A" stroke="#333331" stroke-width="3" stroke-linecap="round" stroke-linejoin="round"/>
<path d="M10.4397 2.38e-06H2.14141e-06V10.4426H10.4397V2.38e-06Z" transform="matrix(-0.931391 0.36402 0.363783 0.931484 174.034 76.3176)" fill="#FFC13A" stroke="#333331" stroke-width="3" stroke-linecap="round" stroke-linejoin="round"/>
<path d="M10.4397 0H0V10.4426H10.4397V0Z" transform="matrix(-0.931391 0.36402 0.363783 0.931484 157.503 82.7808)" fill="#FFC13A" stroke="#333331" stroke-width="3" stroke-linecap="round" stroke-linejoin="round"/>
<path d="M10.4397 0H-4.28281e-06V10.4426H10.4397V0Z" transform="matrix(-0.931391 0.36402 0.363783 0.931484 140.98 89.2333)" fill="#FFC13A" stroke="#333331" stroke-width="3" stroke-linecap="round" stroke-linejoin="round"/>
<path d="M10.4397 0H5.23455e-06V10.4426H10.4397V0Z" transform="matrix(-0.931391 0.36402 0.363783 0.931484 124.449 95.6887)" fill="#FFC13A" stroke="#333331" stroke-width="3" stroke-linecap="round" stroke-linejoin="round"/>
<path d="M10.4397 0H-4.75868e-06V10.4426H10.4397V0Z" transform="matrix(-0.931391 0.36402 0.363783 0.931484 107.934 102.149)" fill="#FFC13A" stroke="#333331" stroke-width="3" stroke-linecap="round" stroke-linejoin="round"/>
<path d="M10.4397 -2.38e-06H4.75868e-06V10.4426H10.4397V-2.38e-06Z" transform="matrix(-0.931391 0.36402 0.363783 0.931484 91.4031 108.604)" fill="#FFC13A" stroke="#333331" stroke-width="3" stroke-linecap="round" stroke-linejoin="round"/>
<path d="M10.4397 4.284e-06H2.37934e-06V10.4426H10.4397V4.284e-06Z" transform="matrix(-0.931391 0.36402 0.363783 0.931484 74.8753 115.075)" fill="#FFC13A" stroke="#333331" stroke-width="3" stroke-linecap="round" stroke-linejoin="round"/>
<path d="M10.4397 3.332e-06H4.28281e-06V10.4426H10.4397V3.332e-06Z" transform="matrix(-0.931391 0.36402 0.363783 0.931484 58.3519 121.527)" fill="#FFC13A" stroke="#333331" stroke-width="3" stroke-linecap="round" stroke-linejoin="round"/>
<path d="M10.4397 0H-2.37934e-06V10.4426H10.4397V0Z" transform="matrix(-0.931391 0.36402 0.363783 0.931484 201.26 48.4893)" fill="#FFC13A" stroke="#333331" stroke-width="3" stroke-linecap="round" stroke-linejoin="round"/>
<path d="M10.4397 0H0V10.4426H10.4397V0Z" transform="matrix(-0.931391 0.36402 0.363783 0.931484 184.729 54.9525)" fill="#FFC13A" stroke="#333331" stroke-width="3" stroke-linecap="round" stroke-linejoin="round"/>
<path d="M10.4397 0H-2.85521e-06V10.4426H10.4397V0Z" transform="matrix(-0.931391 0.36402 0.363783 0.931484 168.206 61.405)" fill="#FFC13A" stroke="#333331" stroke-width="3" stroke-linecap="round" stroke-linejoin="round"/>
<path d="M10.4397 0H-5.23455e-06V10.4426H10.4397V0Z" transform="matrix(-0.931391 0.36402 0.363783 0.931484 151.675 67.8682)" fill="#FFC13A" stroke="#333331" stroke-width="3" stroke-linecap="round" stroke-linejoin="round"/>
<path d="M10.4397 0H-3.33108e-06V10.4426H10.4397V0Z" transform="matrix(-0.931391 0.36402 0.363783 0.931484 135.16 74.3207)" fill="#FFC13A" stroke="#333331" stroke-width="3" stroke-linecap="round" stroke-linejoin="round"/>
<path d="M10.4397 -2.618e-06H-5.71042e-06V10.4426H10.4397V-2.618e-06Z" transform="matrix(-0.931391 0.36402 0.363783 0.931484 118.629 80.7761)" fill="#FFC13A" stroke="#333331" stroke-width="3" stroke-linecap="round" stroke-linejoin="round"/>
<path d="M10.4397 0H-3.80694e-06V10.4426H10.4397V0Z" transform="matrix(-0.931391 0.36402 0.363783 0.931484 102.108 87.2437)" fill="#FFC13A" stroke="#333331" stroke-width="3" stroke-linecap="round" stroke-linejoin="round"/>
<path d="M10.4397 -2.856e-06H5.71042e-06V10.4426H10.4397V-2.856e-06Z" transform="matrix(-0.931391 0.36402 0.363783 0.931484 85.5778 93.6991)" fill="#FFC13A" stroke="#333331" stroke-width="3" stroke-linecap="round" stroke-linejoin="round"/>
<path d="M10.4397 2.142e-06H3.33108e-06V10.4426H10.4397V2.142e-06Z" transform="matrix(-0.931391 0.36402 0.363783 0.931484 69.0549 100.162)" fill="#FFC13A" stroke="#333331" stroke-width="3" stroke-linecap="round" stroke-linejoin="round"/>
<path d="M10.4397 -4.76e-06H-6.66215e-06V10.4426H10.4397V-4.76e-06Z" transform="matrix(-0.931391 0.36402 0.363783 0.931484 52.5316 106.615)" fill="#FFC13A" stroke="#333331" stroke-width="3" stroke-linecap="round" stroke-linejoin="round"/>
</svg>
