<svg width="30" height="37" viewBox="0 0 30 37" fill="none" xmlns="http://www.w3.org/2000/svg">
<path d="M26.5385 0H3.46154C1.55769 0 0 1.56094 0 3.46875V33.5312C0 35.4391 1.55769 37 3.46154 37H26.5385C28.4423 37 30 35.4391 30 33.5312V3.46875C30 1.56094 28.4423 0 26.5385 0ZM15 35.8438C14.3628 35.8438 13.8462 35.3261 13.8462 34.6875C13.8462 34.0489 14.3628 33.5312 15 33.5312C15.6372 33.5312 16.1538 34.0489 16.1538 34.6875C16.1538 35.3261 15.6372 35.8438 15 35.8438ZM25.3846 32.375H4.61538V4.625H25.3846V32.375Z" fill="white"/>
</svg>
