<svg xmlns="http://www.w3.org/2000/svg" viewBox="0 0 257.51 104.92"><defs><style>.cls-1{fill:#ffc13a;}.cls-1,.cls-2,.cls-4{stroke:#333331;stroke-linecap:round;stroke-linejoin:round;stroke-width:3px;}.cls-2{fill:none;}.cls-3,.cls-4{fill:#fff;}</style></defs><title>aaaa1Asset 3</title><g id="Layer_2" data-name="Layer 2"><g id="Objects"><g id="_Clip_Group_" data-name="&lt;Clip Group&gt;"><g id="_Group_" data-name="&lt;Group&gt;"><g id="_Group_2" data-name="&lt;Group&gt;"><path id="_Path_" data-name="&lt;Path&gt;" class="cls-1" d="M168.21,60.09l-8.82-1.51A14.88,14.88,0,0,1,147.24,41.4l1-6a10,10,0,0,1,7.06-7.91l3.74-1.08a28.16,28.16,0,0,1,19.8,1.53l5.77,2.71a10,10,0,0,1,4.94,13L186.85,50A17.14,17.14,0,0,1,168.21,60.09Z"/><line id="_Path_2" data-name="&lt;Path&gt;" class="cls-2" x1="148.27" y1="35.38" x2="139.98" y2="33.95"/><path id="_Path_3" data-name="&lt;Path&gt;" class="cls-1" d="M220.69,69.1l8.82,1.51a14.88,14.88,0,0,0,17.18-12.15l1-6a10,10,0,0,0-4-9.8l-3.16-2.27a28.2,28.2,0,0,0-19.18-5.16l-6.35.63a10,10,0,0,0-9,10.61l.46,6.9A17.14,17.14,0,0,0,220.69,69.1Z"/><line id="_Path_4" data-name="&lt;Path&gt;" class="cls-2" x1="247.72" y1="52.44" x2="256.01" y2="53.86"/><path id="_Path_5" data-name="&lt;Path&gt;" class="cls-2" d="M190.09,37.22s10-6.64,16.74,2.88"/><g id="_Group_3" data-name="&lt;Group&gt;"><path id="_Path_6" data-name="&lt;Path&gt;" class="cls-3" d="M207.78,46.33l.08,1.19c11.68.32,22.42-2.27,29.53-7.09a26.23,26.23,0,0,0-8.82-3.21,26.71,26.71,0,0,0-7-.25l-6.34.62A8.19,8.19,0,0,0,207.78,46.33Z"/><path id="_Path_7" data-name="&lt;Path&gt;" class="cls-3" d="M187.45,44.13l.51-1.2a8.18,8.18,0,0,0-4.06-10.7h0l-5.78-2.71a26.4,26.4,0,0,0-16.76-1.9C166.63,34.59,176.12,40.62,187.45,44.13Z"/></g></g><g id="_Group_4" data-name="&lt;Group&gt;"><circle id="_Path_8" data-name="&lt;Path&gt;" class="cls-4" cx="52.46" cy="52.46" r="50.96"/><path id="_Path_9" data-name="&lt;Path&gt;" class="cls-4" d="M106.91,47.17h-18a36.81,36.81,0,1,0,0,10.58h18a5.29,5.29,0,1,0,0-10.58Z"/><circle id="_Path_10" data-name="&lt;Path&gt;" class="cls-1" cx="52.46" cy="52.46" r="29.2"/><path id="_Path_11" data-name="&lt;Path&gt;" class="cls-3" d="M71.07,32.29A27.45,27.45,0,0,0,32.29,71.08,31,31,0,0,1,71.07,32.29Z"/></g></g></g></g></g></svg>