<?xml version="1.0"?>
<svg xmlns="http://www.w3.org/2000/svg" viewBox="0 0 328.2 285.79">
<defs>
    <style>.cls-1{fill:#fff;}.cls-1,.cls-2{stroke:#333331;stroke-linecap:round;stroke-linejoin:round;stroke-width:3px;}.cls-2{fill:#ffc13a;}</style>
</defs>
<title>aaaaAsset 1</title>
<g id="Layer_2" data-name="Layer 2">
    <g id="Objects">
        <g id="_Clip_Group_" data-name="&lt;Clip Group&gt;">
            <g id="_Group_" data-name="&lt;Group&gt;">
                <g id="_Group_2" data-name="&lt;Group&gt;">
                    <path id="_Rectangle_" data-name="&lt;Rectangle&gt;" class="cls-1" d="M18,82.55H284.22a0,0,0,0,1,0,0V231.92a13.5,13.5,0,0,1-13.5,13.5H31.52A13.5,13.5,0,0,1,18,231.92V82.55a0,0,0,0,1,0,0Z" transform="translate(70.04 -43.75) rotate(21.34)"/>
                    <polygon id="_Path_" data-name="&lt;Path&gt;" class="cls-2" points="304.73 136.58 56.79 39.7 54.97 10.73 325.7 116.51 304.73 136.58"/>
                    <path id="_Rectangle_2" data-name="&lt;Rectangle&gt;" class="cls-1" d="M62.15,49.61H323.81a14.5,14.5,0,0,1,14.5,14.5v0a0,0,0,0,1,0,0H47.64a0,0,0,0,1,0,0v0A14.5,14.5,0,0,1,62.15,49.61Z" transform="translate(33.93 -66.33) rotate(21.34)"/>
                    <g id="_Group_3" data-name="&lt;Group&gt;">
                        <polygon id="_Path_2" data-name="&lt;Path&gt;" class="cls-1" points="65.77 33.15 65.24 24.8 308.61 119.89 302.57 125.67 65.77 33.15"/>
                        <polygon id="_Path_3" data-name="&lt;Path&gt;" class="cls-1" points="65.77 33.15 65.24 24.8 308.61 119.89 302.57 125.67 65.77 33.15"/>
                    </g>
                    <rect id="_Rectangle_3" data-name="&lt;Rectangle&gt;" class="cls-2" x="97.66" y="197.38" width="68.27" height="32.13" transform="translate(86.72 -33.33) rotate(21.34)"/>
                    <line id="_Path_4" data-name="&lt;Path&gt;" class="cls-1" x1="97.81" y1="206.63" x2="118.61" y2="214.76"/>
                    <line id="_Path_5" data-name="&lt;Path&gt;" class="cls-1" x1="140.6" y1="223.35" x2="161.4" y2="231.47"/>
                    <rect id="_Rectangle_4" data-name="&lt;Rectangle&gt;" class="cls-2" x="40.07" y="137.84" width="13.39" height="13.39" transform="translate(55.81 -7.11) rotate(21.34)"/>
                    <rect id="_Rectangle_5" data-name="&lt;Rectangle&gt;" class="cls-2" x="61.27" y="146.12" width="13.39" height="13.39" transform="translate(60.27 -14.25) rotate(21.34)"/>
                    <polygon id="_Path_6" data-name="&lt;Path&gt;" class="cls-2" points="170.14 185.55 85.36 152.42 80.49 164.89 165.27 198.02 177.74 202.89 182.61 190.42 170.14 185.55"/>
                    <rect id="_Rectangle_6" data-name="&lt;Rectangle&gt;" class="cls-2" x="188.44" y="195.81" width="13.39" height="13.39" transform="translate(87.08 -57.13) rotate(21.34)"/>
                    <rect id="_Rectangle_7" data-name="&lt;Rectangle&gt;" class="cls-2" x="209.64" y="204.09" width="13.39" height="13.39" transform="translate(91.54 -64.27) rotate(21.34)"/>
                    <polygon id="_Path_7" data-name="&lt;Path&gt;" class="cls-2" points="71.63 125.02 50.44 116.74 45.56 129.21 66.76 137.49 79.23 142.36 84.1 129.89 71.63 125.02"/>
                    <rect id="_Rectangle_8" data-name="&lt;Rectangle&gt;" class="cls-2" x="89.93" y="135.28" width="13.39" height="13.39" transform="translate(58.29 -25.43) rotate(21.34)"/>
                    <rect id="_Rectangle_9" data-name="&lt;Rectangle&gt;" class="cls-2" x="111.13" y="143.56" width="13.39" height="13.39" transform="translate(62.76 -32.58) rotate(21.34)"/>
                    <rect id="_Rectangle_10" data-name="&lt;Rectangle&gt;" class="cls-2" x="132.32" y="151.84" width="13.39" height="13.39" transform="translate(67.23 -39.72) rotate(21.34)"/>
                    <rect id="_Rectangle_11" data-name="&lt;Rectangle&gt;" class="cls-2" x="195.91" y="176.69" width="13.39" height="13.39" transform="translate(80.63 -61.16) rotate(21.34)"/>
                    <rect id="_Rectangle_12" data-name="&lt;Rectangle&gt;" class="cls-2" x="217.11" y="184.97" width="13.39" height="13.39" transform="translate(85.1 -68.3) rotate(21.34)"/>
                    <polygon id="_Path_8" data-name="&lt;Path&gt;" class="cls-2" points="241.2 191.28 236.32 203.74 228.85 222.86 241.32 227.73 248.79 208.62 253.66 196.15 241.2 191.28"/>
                    <rect id="_Rectangle_13" data-name="&lt;Rectangle&gt;" class="cls-2" x="55.01" y="99.6" width="13.39" height="13.39" transform="translate(42.91 -15.17) rotate(21.34)"/>
                    <rect id="_Rectangle_14" data-name="&lt;Rectangle&gt;" class="cls-2" x="76.21" y="107.88" width="13.39" height="13.39" transform="translate(47.38 -22.31) rotate(21.34)"/>
                    <rect id="_Rectangle_15" data-name="&lt;Rectangle&gt;" class="cls-2" x="97.4" y="116.16" width="13.39" height="13.39" transform="translate(51.85 -29.46) rotate(21.34)"/>
                    <rect id="_Rectangle_16" data-name="&lt;Rectangle&gt;" class="cls-2" x="118.6" y="124.45" width="13.39" height="13.39" transform="translate(56.32 -36.6) rotate(21.34)"/>
                    <rect id="_Rectangle_17" data-name="&lt;Rectangle&gt;" class="cls-2" x="139.79" y="132.73" width="13.39" height="13.39" transform="translate(60.78 -43.75) rotate(21.34)"/>
                    <rect id="_Rectangle_18" data-name="&lt;Rectangle&gt;" class="cls-2" x="160.99" y="141.01" width="13.39" height="13.39" transform="translate(65.25 -50.9) rotate(21.34)"/>
                    <polygon id="_Path_9" data-name="&lt;Path&gt;" class="cls-2" points="185.08 147.31 177.61 166.43 168.88 163.02 156.41 158.15 151.54 170.62 164.01 175.49 172.74 178.9 185.21 183.77 190.08 171.3 197.55 152.19 185.08 147.31"/>
                    <rect id="_Rectangle_19" data-name="&lt;Rectangle&gt;" class="cls-2" x="203.38" y="157.57" width="13.39" height="13.39" transform="translate(74.19 -65.19) rotate(21.34)"/>
                    <rect id="_Rectangle_20" data-name="&lt;Rectangle&gt;" class="cls-2" x="224.58" y="165.85" width="13.39" height="13.39" transform="translate(78.65 -72.33) rotate(21.34)"/>
                    <rect id="_Rectangle_21" data-name="&lt;Rectangle&gt;" class="cls-2" x="245.77" y="174.14" width="13.39" height="13.39" transform="translate(83.12 -79.48) rotate(21.34)"/>
                    <polygon id="_Path_10" data-name="&lt;Path&gt;" class="cls-2" points="86.57 86.79 65.38 78.51 60.5 90.97 81.7 99.26 94.17 104.13 99.04 91.66 86.57 86.79"/>
                    <rect id="_Rectangle_22" data-name="&lt;Rectangle&gt;" class="cls-2" x="104.87" y="97.05" width="13.39" height="13.39" transform="translate(45.4 -33.49) rotate(21.34)"/>
                    <rect id="_Rectangle_23" data-name="&lt;Rectangle&gt;" class="cls-2" x="126.07" y="105.33" width="13.39" height="13.39" transform="translate(49.87 -40.63) rotate(21.34)"/>
                    <rect id="_Rectangle_24" data-name="&lt;Rectangle&gt;" class="cls-2" x="147.26" y="113.61" width="13.39" height="13.39" transform="translate(54.34 -47.78) rotate(21.34)"/>
                    <rect id="_Rectangle_25" data-name="&lt;Rectangle&gt;" class="cls-2" x="168.46" y="121.89" width="13.39" height="13.39" transform="translate(58.81 -54.93) rotate(21.34)"/>
                    <rect id="_Rectangle_26" data-name="&lt;Rectangle&gt;" class="cls-2" x="189.65" y="130.17" width="13.39" height="13.39" transform="translate(63.27 -62.07) rotate(21.34)"/>
                    <rect id="_Rectangle_27" data-name="&lt;Rectangle&gt;" class="cls-2" x="210.85" y="138.45" width="13.39" height="13.39" transform="translate(67.74 -69.22) rotate(21.34)"/>
                    <rect id="_Rectangle_28" data-name="&lt;Rectangle&gt;" class="cls-2" x="232.05" y="146.74" width="13.39" height="13.39" transform="translate(72.21 -76.36) rotate(21.34)"/>
                    <rect id="_Rectangle_29" data-name="&lt;Rectangle&gt;" class="cls-2" x="253.24" y="155.02" width="13.39" height="13.39" transform="translate(76.68 -83.51) rotate(21.34)"/>
                    <rect id="_Rectangle_30" data-name="&lt;Rectangle&gt;" class="cls-2" x="69.95" y="61.37" width="13.39" height="13.39" transform="translate(30.02 -23.23) rotate(21.34)"/>
                    <rect id="_Rectangle_31" data-name="&lt;Rectangle&gt;" class="cls-2" x="91.15" y="69.65" width="13.39" height="13.39" transform="translate(34.49 -30.37) rotate(21.34)"/>
                    <rect id="_Rectangle_32" data-name="&lt;Rectangle&gt;" class="cls-2" x="112.34" y="77.93" width="13.39" height="13.39" transform="translate(38.96 -37.52) rotate(21.34)"/>
                    <rect id="_Rectangle_33" data-name="&lt;Rectangle&gt;" class="cls-2" x="133.54" y="86.21" width="13.39" height="13.39" transform="translate(43.43 -44.66) rotate(21.34)"/>
                    <rect id="_Rectangle_34" data-name="&lt;Rectangle&gt;" class="cls-2" x="154.73" y="94.49" width="13.39" height="13.39" transform="translate(47.89 -51.81) rotate(21.34)"/>
                    <rect id="_Rectangle_35" data-name="&lt;Rectangle&gt;" class="cls-2" x="175.93" y="102.77" width="13.39" height="13.39" transform="translate(52.36 -58.96) rotate(21.34)"/>
                    <rect id="_Rectangle_36" data-name="&lt;Rectangle&gt;" class="cls-2" x="197.12" y="111.06" width="13.39" height="13.39" transform="translate(56.83 -66.1) rotate(21.34)"/>
                    <rect id="_Rectangle_37" data-name="&lt;Rectangle&gt;" class="cls-2" x="218.32" y="119.34" width="13.39" height="13.39" transform="translate(61.3 -73.25) rotate(21.34)"/>
                    <rect id="_Rectangle_38" data-name="&lt;Rectangle&gt;" class="cls-2" x="239.52" y="127.62" width="13.39" height="13.39" transform="translate(65.76 -80.39) rotate(21.34)"/>
                    <rect id="_Rectangle_39" data-name="&lt;Rectangle&gt;" class="cls-2" x="260.71" y="135.9" width="13.39" height="13.39" transform="translate(70.23 -87.54) rotate(21.34)"/>
                </g>
            </g>
        </g>
    </g>
</g>
</svg>
