<svg xmlns="http://www.w3.org/2000/svg" viewBox="0 0 123.57 139.09"><defs><style>.cls-1,.cls-5,.cls-6{fill:#ffc13a;}.cls-2{fill:none;}.cls-2,.cls-3,.cls-6{stroke:#333331;stroke-linecap:round;stroke-linejoin:round;stroke-width:3px;}.cls-3{fill:#fff;}.cls-4{fill:#333331;}.cls-5{font-size:28.56px;font-family:Montserrat-Black, Montserrat Black;}</style></defs><title>aaaa1Asset 3</title><g id="Layer_2" data-name="Layer 2"><g id="Objects"><g id="_Clip_Group_" data-name="&lt;Clip Group&gt;"><g id="_Group_" data-name="&lt;Group&gt;"><path id="_Path_" data-name="&lt;Path&gt;" class="cls-1" d="M65.14,11.2,12.34,38.39A12,12,0,0,0,7.15,54.62l.67,1.31,4.31,8.36,29.39,57.09,4.31,8.37.67,1.3a12,12,0,0,0,16.23,5.2l52.8-27.18a12.06,12.06,0,0,0,5.2-16.24l-.67-1.3-4.31-8.37L86.36,26.07l-4.31-8.36-.67-1.31A12.07,12.07,0,0,0,65.14,11.2Z"/><rect id="_Rectangle_" data-name="&lt;Rectangle&gt;" class="cls-2" x="20.04" y="9.8" width="83.49" height="119.48" rx="12.05" ry="12.05" transform="translate(-24.98 36) rotate(-27.24)"/><rect id="_Rectangle_2" data-name="&lt;Rectangle&gt;" class="cls-3" x="20.04" y="32.74" width="83.49" height="73.62" transform="translate(-24.98 36) rotate(-27.24)"/><circle id="_Path_2" data-name="&lt;Path&gt;" class="cls-3" cx="82.48" cy="112.32" r="4.97"/><circle id="_Path_3" data-name="&lt;Path&gt;" class="cls-4" cx="59.31" cy="15.5" r="2.97"/><rect id="_Rectangle_3" data-name="&lt;Rectangle&gt;" class="cls-4" x="22.36" y="22.7" width="31.75" height="7.35" rx="3.67" ry="3.67" transform="translate(-7.83 20.43) rotate(-27.24)"/><g id="_Group_2" data-name="&lt;Group&gt;"><text class="cls-5" transform="translate(48.64 85.91) rotate(-27.24)">A+</text></g><rect id="_Rectangle_4" data-name="&lt;Rectangle&gt;" class="cls-6" x="85.23" y="18.73" width="4.7" height="9.17" transform="translate(-0.96 42.68) rotate(-27.24)"/><rect id="_Rectangle_5" data-name="&lt;Rectangle&gt;" class="cls-6" x="91.98" y="31.84" width="4.7" height="9.17" transform="translate(-6.21 47.22) rotate(-27.24)"/><rect id="_Rectangle_6" data-name="&lt;Rectangle&gt;" class="cls-6" x="29.86" y="103.86" width="4.7" height="9.17" transform="translate(-46.07 26.77) rotate(-27.24)"/></g></g></g></g></svg>