<svg xmlns="http://www.w3.org/2000/svg" viewBox="0 0 237.99 196.46"><defs><style>.cls-1{fill:#fff;}.cls-1,.cls-3,.cls-4{stroke:#333331;stroke-linecap:round;stroke-linejoin:round;stroke-width:3px;}.cls-2,.cls-3{fill:#ffc13a;}.cls-4{fill:none;}</style></defs><title>aaaa1Asset 2</title><g id="Layer_2" data-name="Layer 2"><g id="Objects"><g id="_Clip_Group_" data-name="&lt;Clip Group&gt;"><g id="_Group_" data-name="&lt;Group&gt;"><rect id="_Rectangle_" data-name="&lt;Rectangle&gt;" class="cls-1" x="92.54" y="30.79" width="118.07" height="142.71" transform="translate(62.54 -57.48) rotate(26.87)"/><rect id="_Rectangle_2" data-name="&lt;Rectangle&gt;" class="cls-1" x="84.81" y="19.7" width="118.07" height="157.05" transform="translate(59.93 -54.41) rotate(26.87)"/><rect id="_Path_" data-name="&lt;Path&gt;" class="cls-2" x="61.83" y="44.35" width="153.32" height="102.33" transform="translate(-9.31 175.88) rotate(-63.13)"/><rect id="_Rectangle_3" data-name="&lt;Rectangle&gt;" class="cls-1" x="140.39" y="94.24" width="60.88" height="27.09" transform="translate(67.16 -65.58) rotate(26.87)"/><polygon id="_Path_2" data-name="&lt;Path&gt;" class="cls-1" points="212.82 68.89 206.02 60.33 195.09 59.9 206.41 37.57 224.14 46.55 212.82 68.89"/><rect id="_Rectangle_4" data-name="&lt;Rectangle&gt;" class="cls-3" x="90.31" y="-3.34" width="16.12" height="157.05" transform="translate(44.61 -36.35) rotate(26.87)"/></g><g id="_Group_2" data-name="&lt;Group&gt;"><rect id="_Rectangle_5" data-name="&lt;Rectangle&gt;" class="cls-3" x="14.12" y="52.04" width="14.08" height="78.62" transform="translate(31.45 -1.85) rotate(19.34)"/><path id="_Rectangle_6" data-name="&lt;Rectangle&gt;" class="cls-3" d="M36.83,38.7h0A4.28,4.28,0,0,1,41.1,43V54.71a0,0,0,0,1,0,0H32.55a0,0,0,0,1,0,0V43a4.28,4.28,0,0,1,4.28-4.28Z" transform="translate(17.54 -9.56) rotate(19.34)"/><path id="_Path_3" data-name="&lt;Path&gt;" class="cls-3" d="M1.5,126.12l.94,11a2.76,2.76,0,0,0,4.76,1.66l7.59-8Z"/><rect id="_Rectangle_7" data-name="&lt;Rectangle&gt;" class="cls-1" x="4.2" y="110.24" width="14.08" height="18.73" transform="translate(40.24 3.02) rotate(19.34)"/><polyline id="_Path_4" data-name="&lt;Path&gt;" class="cls-4" points="25.09 58.91 45.02 65.9 33.6 98.43"/></g></g></g></g></svg>