<svg xmlns="http://www.w3.org/2000/svg" viewBox="0 0 272.56 215.97"><defs><style>.cls-1{fill:#ffc13a;}.cls-1,.cls-2,.cls-4{stroke:#333331;stroke-linecap:round;stroke-linejoin:round;stroke-width:3px;}.cls-2{fill:none;}.cls-3,.cls-4{fill:#fff;}</style></defs><title>aaaa1Asset 2</title><g id="Layer_2" data-name="Layer 2"><g id="Objects"><g id="_Clip_Group_" data-name="&lt;Clip Group&gt;"><g id="_Group_" data-name="&lt;Group&gt;"><g id="_Group_2" data-name="&lt;Group&gt;"><path id="_Path_" data-name="&lt;Path&gt;" class="cls-1" d="M128.82,203.73,120,202.22A14.88,14.88,0,0,1,107.84,185l1-6a10,10,0,0,1,7.06-7.91l3.73-1.08a28.18,28.18,0,0,1,19.81,1.53l5.77,2.71a10,10,0,0,1,4.94,13l-2.73,6.35A17.15,17.15,0,0,1,128.82,203.73Z"/><line id="_Path_2" data-name="&lt;Path&gt;" class="cls-2" x1="108.88" y1="179.02" x2="100.59" y2="177.59"/><path id="_Path_3" data-name="&lt;Path&gt;" class="cls-1" d="M181.29,212.74l8.83,1.51A14.88,14.88,0,0,0,207.3,202.1l1-6a10,10,0,0,0-4-9.8L201.15,184A28.15,28.15,0,0,0,182,178.86l-6.35.62a10,10,0,0,0-9,10.61l.46,6.9A17.14,17.14,0,0,0,181.29,212.74Z"/><line id="_Path_4" data-name="&lt;Path&gt;" class="cls-2" x1="208.33" y1="196.08" x2="216.62" y2="197.5"/><path id="_Path_5" data-name="&lt;Path&gt;" class="cls-2" d="M150.69,180.86s10-6.64,16.74,2.88"/><g id="_Group_3" data-name="&lt;Group&gt;"><path id="_Path_6" data-name="&lt;Path&gt;" class="cls-3" d="M168.39,190l.08,1.19c11.67.32,22.42-2.27,29.53-7.09a26.23,26.23,0,0,0-8.82-3.21,26.72,26.72,0,0,0-7-.25l-6.35.62A8.19,8.19,0,0,0,168.39,190Z"/><path id="_Path_7" data-name="&lt;Path&gt;" class="cls-3" d="M148.06,187.77l.51-1.2a8.19,8.19,0,0,0-4.06-10.7h0l-5.77-2.71a26.4,26.4,0,0,0-16.76-1.9C127.24,178.23,136.73,184.26,148.06,187.77Z"/></g></g><g id="_Group_4" data-name="&lt;Group&gt;"><circle id="_Path_8" data-name="&lt;Path&gt;" class="cls-4" cx="52.46" cy="60.92" r="50.96"/><path id="_Path_9" data-name="&lt;Path&gt;" class="cls-4" d="M106.91,55.63h-18a36.81,36.81,0,1,0,0,10.58h18a5.29,5.29,0,1,0,0-10.58Z"/><circle id="_Path_10" data-name="&lt;Path&gt;" class="cls-1" cx="52.46" cy="60.92" r="29.2"/><path id="_Path_11" data-name="&lt;Path&gt;" class="cls-3" d="M71.07,40.75A27.45,27.45,0,0,0,32.29,79.54,31,31,0,0,1,71.07,40.75Z"/></g><g id="_Group_5" data-name="&lt;Group&gt;"><rect id="_Rectangle_" data-name="&lt;Rectangle&gt;" class="cls-4" x="155.85" y="11.05" width="101.02" height="138.23" transform="translate(23.19 -44.16) rotate(12.94)"/><g id="_Group_6" data-name="&lt;Group&gt;"><rect id="_Rectangle_2" data-name="&lt;Rectangle&gt;" class="cls-4" x="185.83" y="31.62" width="21.46" height="21.46" transform="translate(14.47 -42.93) rotate(12.94)"/><g id="_Group_7" data-name="&lt;Group&gt;"><line id="_Path_12" data-name="&lt;Path&gt;" class="cls-2" x1="179.93" y1="67.68" x2="235.77" y2="80.5"/><line id="_Path_13" data-name="&lt;Path&gt;" class="cls-2" x1="177.04" y1="80.26" x2="232.88" y2="93.09"/><line id="_Path_14" data-name="&lt;Path&gt;" class="cls-2" x1="174.15" y1="92.85" x2="229.99" y2="105.67"/><line id="_Path_15" data-name="&lt;Path&gt;" class="cls-2" x1="171.26" y1="105.43" x2="227.1" y2="118.26"/><line id="_Path_16" data-name="&lt;Path&gt;" class="cls-2" x1="168.37" y1="118.02" x2="224.2" y2="130.85"/></g></g></g></g></g></g></g></svg>